<svg xmlns="http://www.w3.org/2000/svg" xmlns:xlink="http://www.w3.org/1999/xlink" width="128" height="128"><defs><clipPath id="f"><path d="M0 0h128v128H0z"/></clipPath><clipPath id="o"><path d="M0 0h128v128H0z"/></clipPath><clipPath id="b"><path d="M0 0h192v152H0z"/></clipPath><clipPath id="m"><path d="M0 0h128v128H0z"/></clipPath><clipPath id="j"><path d="M0 0h128v128H0z"/></clipPath><clipPath id="d"><path d="M0 0h192v152H0z"/></clipPath><g id="p" clip-path="url(#m)"><path d="M128 80.64V128H0V80.64zm0 0" fill="url(#n)"/><path d="M13.309 80.64L60.664 128H81.88l-47.36-47.36zm42.421 0L103.094 128h21.215L76.945 80.64zm42.43 0L128 110.48V89.27l-8.629-8.63zM0 88.548v21.215L18.238 128h21.215zm0 0"/></g><g id="l" clip-path="url(#j)" filter="url(#a)"><use xlink:href="#k"/></g><g id="t" clip-path="url(#o)"><use xlink:href="#p" mask="url(#q)"/></g><g id="h" clip-path="url(#b)"><path d="M108 100H20V22h88zm0 0" fill="url(#c)"/></g><g id="k" clip-path="url(#f)"><path d="M20 22h88a8 8 0 018 8v78a8 8 0 01-8 8H20a8 8 0 01-8-8V30a8 8 0 018-8zm0 0" fill="url(#g)"/><path d="M20 12h88a8 8 0 018 8v80a8 8 0 01-8 8H20a8 8 0 01-8-8V20a8 8 0 018-8zm0 0" fill="#deddda"/><path d="M20 104h88c2.21 0 4-1.79 4-4V20c0-2.21-1.79-4-4-4H20c-2.21 0-4 1.79-4 4v80c0 2.21 1.79 4 4 4zm0 0" fill="#241f31"/><use xlink:href="#h" mask="url(#i)"/><path d="M42.012 36.887L28 29.273V34l9.71 4.629v.144L28 44v4.727l14.012-8.215zm0 0M46 52v4h16v-4zm0 0" fill="#fff"/></g><mask id="i"><g filter="url(#a)"><path fill-opacity=".05" d="M0 0h128v128H0z"/></g></mask><mask id="u"><use xlink:href="#l"/></mask><mask id="q"><g filter="url(#a)"><path fill-opacity=".8" d="M0 0h128v128H0z"/></g></mask><mask id="s"><g filter="url(#a)"><path fill-opacity=".05" d="M0 0h128v128H0z"/></g></mask><linearGradient id="n" gradientUnits="userSpaceOnUse" x1="300" y1="235" x2="428" y2="235" gradientTransform="matrix(0 .37 -.98462 0 295.385 -30.36)"><stop offset="0" stop-color="#f9f06b"/><stop offset="1" stop-color="#f5c211"/></linearGradient><linearGradient id="g" gradientUnits="userSpaceOnUse" x1="48" y1="44" x2="464" y2="44" gradientTransform="matrix(.25 0 0 .25 0 53)"><stop offset="0" stop-color="#77767b"/><stop offset=".05" stop-color="#c0bfbc"/><stop offset=".1" stop-color="#9a9996"/><stop offset=".9" stop-color="#9a9996"/><stop offset=".95" stop-color="#c0bfbc"/><stop offset="1" stop-color="#77767b"/></linearGradient><linearGradient id="r" gradientUnits="userSpaceOnUse" x1="48" y1="44" x2="464" y2="44" gradientTransform="matrix(.25 0 0 .25 0 53)"><stop offset="0" stop-color="#77767b"/><stop offset=".05" stop-color="#c0bfbc"/><stop offset=".1" stop-color="#9a9996"/><stop offset=".9" stop-color="#9a9996"/><stop offset=".95" stop-color="#c0bfbc"/><stop offset="1" stop-color="#77767b"/></linearGradient><radialGradient id="e" gradientUnits="userSpaceOnUse" cx="64" cy="194.19" fx="64" fy="194.19" r="44" gradientTransform="matrix(4.72727 0 0 1.63636 -238.545 -221.766)"><stop offset="0" stop-color="#fff"/><stop offset="1" stop-color="#fff" stop-opacity=".094"/></radialGradient><radialGradient id="c" gradientUnits="userSpaceOnUse" cx="64" cy="194.19" fx="64" fy="194.19" r="44" gradientTransform="matrix(4.72727 0 0 1.63636 -238.545 -221.766)"><stop offset="0" stop-color="#fff"/><stop offset="1" stop-color="#fff" stop-opacity=".094"/></radialGradient><filter id="a" filterUnits="objectBoundingBox" x="0%" y="0%" width="100%" height="100%"><feColorMatrix in="SourceGraphic" values="0 0 0 0 1 0 0 0 0 1 0 0 0 0 1 0 0 0 1 0"/></filter></defs><path d="M20 22h88a8 8 0 018 8v78a8 8 0 01-8 8H20a8 8 0 01-8-8V30a8 8 0 018-8zm0 0" fill="url(#r)"/><path d="M20 12h88a8 8 0 018 8v80a8 8 0 01-8 8H20a8 8 0 01-8-8V20a8 8 0 018-8zm0 0" fill="#deddda"/><path d="M20 104h88c2.21 0 4-1.79 4-4V20c0-2.21-1.79-4-4-4H20c-2.21 0-4 1.79-4 4v80c0 2.21 1.79 4 4 4zm0 0" fill="#241f31"/><use xlink:href="#h" mask="url(#s)"/><path d="M42.012 36.887L28 29.273V34l9.71 4.629v.144L28 44v4.727l14.012-8.215zm0 0M46 52v4h16v-4zm0 0" fill="#fff"/><use xlink:href="#t" mask="url(#u)"/></svg>