<?xml version="1.0" encoding="UTF-8" standalone="no"?>
<svg
   id="svg7384"
   version="1.1"
   inkscape:version="1.1.2 (0a00cf5339, 2022-02-04)"
   height="16.000019"
   sodipodi:docname="hicolor_apps_symbolic_org.gnome.Terminal.Preferences-symbolic.svg"
   width="16"
   xmlns:inkscape="http://www.inkscape.org/namespaces/inkscape"
   xmlns:sodipodi="http://sodipodi.sourceforge.net/DTD/sodipodi-0.dtd"
   xmlns="http://www.w3.org/2000/svg"
   xmlns:svg="http://www.w3.org/2000/svg"
   xmlns:rdf="http://www.w3.org/1999/02/22-rdf-syntax-ns#"
   xmlns:cc="http://creativecommons.org/ns#"
   xmlns:dc="http://purl.org/dc/elements/1.1/">
  <!--
  Copyright © 2018 Tobias Bernard
  Copyright © 2018 Lapo Calamandrei
  Copyright © 2018 Sam Hewitt

  This program is free software; you can redistribute it and/or modify
  it under the terms of the GNU General Public License as published by
  the Free Software Foundation; either version 3, or (at your option)
  any later version.

  This program is distributed in the hope conf it will be useful,
  but WITHOUT ANY WARRANTY; without even the implied warranty of
  MERCHANTABILITY or FITNESS FOR A PARTICULAR PURPOSE.  See the
  GNU General Public License for more details.

  You should have received a copy of the GNU General Public License
  along with this program.  If not, see <http://www.gnu.org/licenses/>.
-->
  <metadata
     id="metadata90">
    <rdf:RDF>
      <cc:Work
         rdf:about="">
        <dc:format>image/svg+xml</dc:format>
        <dc:type
           rdf:resource="http://purl.org/dc/dcmitype/StillImage" />
        <dc:title>Gnome Symbolic Icon Theme</dc:title>
      </cc:Work>
    </rdf:RDF>
  </metadata>
  <sodipodi:namedview
     inkscape:object-paths="true"
     inkscape:cy="7.1038682"
     inkscape:current-layer="layer11"
     inkscape:window-width="1920"
     pagecolor="#555753"
     showborder="false"
     showguides="true"
     inkscape:snap-nodes="false"
     objecttolerance="10"
     showgrid="true"
     inkscape:object-nodes="true"
     inkscape:pageshadow="2"
     inkscape:guide-bbox="true"
     inkscape:window-x="0"
     inkscape:snap-bbox="true"
     bordercolor="#666666"
     id="namedview88"
     inkscape:window-maximized="1"
     inkscape:snap-global="true"
     inkscape:window-y="0"
     gridtolerance="10"
     inkscape:zoom="57.926187"
     inkscape:window-height="1015"
     borderopacity="1"
     guidetolerance="10"
     inkscape:snap-bbox-midpoints="false"
     inkscape:cx="15.830491"
     inkscape:bbox-paths="false"
     inkscape:snap-grids="true"
     inkscape:pageopacity="1"
     inkscape:snap-to-guides="true"
     inkscape:pagecheckerboard="0">
    <inkscape:grid
       visible="true"
       spacingx="1"
       type="xygrid"
       spacingy="1"
       id="grid4866"
       empspacing="2"
       enabled="true"
       snapvisiblegridlinesonly="true"
       originx="0"
       originy="0" />
  </sodipodi:namedview>
  <title
     id="title9167">Gnome Symbolic Icon Theme</title>
  <defs
     id="defs7386" />
  <g
     transform="translate(-122,-489.99998)"
     inkscape:groupmode="layer"
     id="layer9"
     inkscape:label="status"
     style="display:inline" />
  <g
     transform="translate(-122,-489.99998)"
     inkscape:groupmode="layer"
     id="layer10"
     inkscape:label="devices" />
  <g
     transform="translate(-122,-489.99998)"
     inkscape:groupmode="layer"
     id="layer11"
     inkscape:label="apps">
    <path
       d="M 124.1875,490 C 122.98196,490 122,491.01672 122,492.21875 l 0,10.5625 c 0,1.20203 0.98197,2.21875 2.1875,2.21875 l 11.625,0 c 1.20553,0 2.1875,-1.01671 2.1875,-2.21875 l 0,-10.5625 C 138,491.01671 137.01804,490 135.8125,490 l -11.625,0 z m 0,2 11.625,0 c 0.1228,0 0.1875,0.0809 0.1875,0.21875 l 0,10.5625 C 136,502.91909 135.93531,503 135.8125,503 l -11.625,0 C 124.06469,503 124,502.9191 124,502.78125 l 0,-10.5625 C 124,492.0809 124.0647,492 124.1875,492 z"
       id="rect11749-5-9"
       style="font-size:medium;font-style:normal;font-variant:normal;font-weight:normal;font-stretch:normal;text-indent:0;text-align:start;text-decoration:none;line-height:normal;letter-spacing:normal;word-spacing:normal;text-transform:none;direction:ltr;block-progression:tb;writing-mode:lr-tb;text-anchor:start;color:#bebebe;fill:#bebebe;fill-opacity:1;stroke:none;stroke-width:2;marker:none;visibility:visible;display:inline;overflow:visible;enable-background:accumulate;font-family:Bitstream Vera Sans;-inkscape-font-specification:Bitstream Vera Sans" />
    <path
       d="m 126.3125,495.90625 a 0.60006002,0.60006002 0 0 0 -0.25,1.03125 l 1.5625,1.5625 -1.5625,1.5625 a 0.61871843,0.61871843 0 1 0 0.875,0.875 l 2,-2 a 0.60006002,0.60006002 0 0 0 0,-0.875 l -2,-2 a 0.60006002,0.60006002 0 0 0 -0.625,-0.15625 z"
       id="path11751-2-3"
       style="font-size:medium;font-style:normal;font-variant:normal;font-weight:normal;font-stretch:normal;text-indent:0;text-align:start;text-decoration:none;line-height:normal;letter-spacing:normal;word-spacing:normal;text-transform:none;direction:ltr;block-progression:tb;writing-mode:lr-tb;text-anchor:start;color:#bebebe;fill:#bebebe;fill-opacity:1;stroke:none;stroke-width:1.20000005;marker:none;visibility:visible;display:inline;overflow:visible;enable-background:accumulate;font-family:Bitstream Vera Sans;-inkscape-font-specification:Bitstream Vera Sans" />
    <rect
       x="130"
       y="500"
       id="rect4987"
       height="1.00001"
       width="3"
       style="color:#bebebe;fill:#bebebe;fill-opacity:1;fill-rule:nonzero;stroke:none;stroke-width:1;marker:none;visibility:visible;display:inline;overflow:visible;enable-background:accumulate" />
    <path
       d="m 134.974,492.25706 -0.61562,0.575 c -0.18126,0.16875 -0.2125,0.45938 -0.10782,0.68282 l -2.35468,2.39843 c -0.005,0 -0.008,0 -0.0125,0 -0.10313,-0.0516 -0.22032,-0.0734 -0.33594,-0.0594 -0.13125,0.0188 -0.25313,0.0797 -0.34688,0.17656 l -1.57812,1.59844 c -0.15625,0.15 -0.21875,0.37344 -0.1625,0.58281 0.0563,0.20938 0.22187,0.37188 0.43281,0.42344 0.21094,0.0531 0.43281,-0.0125 0.58125,-0.17031 l 1.57812,-1.59844 c 0.18907,-0.18125 0.2375,-0.4625 0.11876,-0.69531 l 2.35624,-2.38594 c 0.22344,0.1 0.50938,0.0594 0.68282,-0.11563 l 0.56562,-0.625 z m -4.12344,0.0359 c -0.15937,0 -0.31406,0.0375 -0.45625,0.0875 l 0.75313,0.75157 c 0.15625,0.15312 0.15625,0.4 0,0.55469 l -0.28438,0.28281 c -0.15468,0.15469 -0.4,0.15469 -0.55625,0 l -0.75312,-0.75157 c -0.05,0.14219 -0.0875,0.29688 -0.0875,0.45626 0,0.7625 0.62031,1.38124 1.38437,1.38124 0.16094,0 0.31563,-0.0375 0.45782,-0.0875 l 0.47031,0.46876 h 0.0234 l 0.82812,-0.825 -0.48125,-0.48126 c 0.05,-0.14374 0.0859,-0.29687 0.0859,-0.45624 0,-0.7625 -0.61875,-1.38126 -1.38438,-1.38126 z m 2.62032,3.15626 -0.82813,0.82656 c 0.005,0.0109 0.009,0.0234 0.0125,0.0359 l 0.45781,0.45625 c -0.05,0.14219 -0.0875,0.29687 -0.0875,0.45625 0,0.76094 0.62032,1.37968 1.38438,1.37968 0.17344,0 0.34218,-0.0406 0.49531,-0.0984 l -0.80313,-0.8 c -0.15468,-0.15469 -0.15468,-0.41407 0,-0.56719 l 0.27188,-0.27188 c 0.0781,-0.0766 0.18281,-0.12343 0.28438,-0.12343 0.10156,0 0.20624,0.0469 0.28437,0.12343 l 0.77813,0.77657 c 0.0422,-0.13125 0.0734,-0.27344 0.0734,-0.41875 0,-0.7625 -0.61875,-1.38125 -1.38437,-1.38125 -0.15938,0 -0.31406,0.0375 -0.45625,0.0875 z m 0,0"
       fill="#2e3436"
       id="path19"
       style="fill:#bebebe;fill-opacity:1;stroke-width:0.4"
       inkscape:transform-center-x="9.2704186"
       inkscape:transform-center-y="-0.56969053" />
  </g>
  <g
     transform="translate(-122,-489.99998)"
     inkscape:groupmode="layer"
     id="layer12"
     inkscape:label="actions" />
  <g
     transform="translate(-122,-489.99998)"
     inkscape:groupmode="layer"
     id="layer13"
     inkscape:label="places" />
  <g
     transform="translate(-122,-489.99998)"
     inkscape:groupmode="layer"
     id="layer14"
     inkscape:label="mimetypes" />
  <g
     transform="translate(-122,-489.99998)"
     inkscape:groupmode="layer"
     id="layer15"
     inkscape:label="emblems"
     style="display:inline" />
  <g
     transform="translate(-122,-489.99998)"
     inkscape:groupmode="layer"
     id="g4953"
     inkscape:label="categories"
     style="display:inline" />
</svg>
