<?xml version="1.0" encoding="UTF-8" standalone="no"?>
<svg
   viewBox="0 0 128 128"
   style="display:inline;enable-background:new"
   version="1.0"
   id="svg11300"
   height="128"
   width="128"
   sodipodi:docname="hicolor_apps_scalable_org.gnome.Terminal.Preferences.svg"
   inkscape:version="1.1.2 (0a00cf5339, 2022-02-04)"
   xmlns:inkscape="http://www.inkscape.org/namespaces/inkscape"
   xmlns:sodipodi="http://sodipodi.sourceforge.net/DTD/sodipodi-0.dtd"
   xmlns:xlink="http://www.w3.org/1999/xlink"
   xmlns="http://www.w3.org/2000/svg"
   xmlns:svg="http://www.w3.org/2000/svg"
   xmlns:rdf="http://www.w3.org/1999/02/22-rdf-syntax-ns#"
   xmlns:cc="http://creativecommons.org/ns#"
   xmlns:dc="http://purl.org/dc/elements/1.1/">
  <sodipodi:namedview
     id="namedview33"
     pagecolor="#ffffff"
     bordercolor="#666666"
     borderopacity="1.0"
     inkscape:pageshadow="2"
     inkscape:pageopacity="0.0"
     inkscape:pagecheckerboard="0"
     showgrid="false"
     inkscape:zoom="4.5961941"
     inkscape:cx="63.63961"
     inkscape:cy="75.17089"
     inkscape:window-width="1920"
     inkscape:window-height="1015"
     inkscape:window-x="0"
     inkscape:window-y="0"
     inkscape:window-maximized="1"
     inkscape:current-layer="svg11300" />
  <!--
  Copyright © 2018 Tobias Bernard
  Copyright © 2018 Lapo Calamandrei
  Copyright © 2018 Sam Hewitt

  This program is free software; you can redistribute it and/or modify
  it under the terms of the GNU General Public License as published by
  the Free Software Foundation; either version 3, or (at your option)
  any later version.

  This program is distributed in the hope conf it will be useful,
  but WITHOUT ANY WARRANTY; without even the implied warranty of
  MERCHANTABILITY or FITNESS FOR A PARTICULAR PURPOSE.  See the
  GNU General Public License for more details.

  You should have received a copy of the GNU General Public License
  along with this program.  If not, see <http://www.gnu.org/licenses/>.
-->
  <title
     id="title4162">Adwaita Icon Template</title>
  <defs
     id="defs3">
    <linearGradient
       id="linearGradient1948">
      <stop
         id="stop1944"
         offset="0"
         style="stop-color:#2d2839;stop-opacity:1;" />
      <stop
         id="stop1946"
         offset="1"
         style="stop-color:#282433;stop-opacity:1" />
    </linearGradient>
    <linearGradient
       id="linearGradient1020">
      <stop
         id="stop1016"
         offset="0"
         style="stop-color:#ffffff;stop-opacity:1;" />
      <stop
         id="stop1018"
         offset="1"
         style="stop-color:#ffffff;stop-opacity:0.09411765" />
    </linearGradient>
    <linearGradient
       id="linearGradient1001">
      <stop
         id="stop989"
         offset="0"
         style="stop-color:#77767b;stop-opacity:1" />
      <stop
         style="stop-color:#c0bfbc;stop-opacity:1"
         offset="0.05"
         id="stop991" />
      <stop
         id="stop993"
         offset="0.09999998"
         style="stop-color:#9a9996;stop-opacity:1" />
      <stop
         style="stop-color:#9a9996;stop-opacity:1"
         offset="0.89999938"
         id="stop995" />
      <stop
         id="stop997"
         offset="0.94999999"
         style="stop-color:#c0bfbc;stop-opacity:1" />
      <stop
         id="stop999"
         offset="1"
         style="stop-color:#77767b;stop-opacity:1" />
    </linearGradient>
    <linearGradient
       gradientUnits="userSpaceOnUse"
       y2="44"
       x2="464"
       y1="44"
       x1="48"
       id="linearGradient965"
       xlink:href="#linearGradient1001" />
    <radialGradient
       gradientUnits="userSpaceOnUse"
       gradientTransform="matrix(-4.7272726,7.935912e-7,-3.0301491e-7,-1.6363636,238.54547,49.766183)"
       r="44"
       fy="194.19048"
       fx="63.999996"
       cy="194.19048"
       cx="63.999996"
       id="radialGradient1030"
       xlink:href="#linearGradient1020" />
    <linearGradient
       gradientUnits="userSpaceOnUse"
       y2="269.13693"
       x2="70.346565"
       y1="245.39511"
       x1="70.346565"
       id="linearGradient1950"
       xlink:href="#linearGradient1948" />
    <clipPath
       clipPathUnits="userSpaceOnUse"
       id="clipPath3248">
      <path
         style="display:inline;fill:#000000;fill-opacity:1;fill-rule:evenodd;stroke:none;stroke-width:0.8;stroke-linecap:round;stroke-linejoin:round;stroke-miterlimit:4;stroke-dashoffset:0.3612;stroke-opacity:1;enable-background:new"
         d="m -541,12 c -0.33143,0.0121 -0.65424,0.106341 -0.9375,0.28125 -8.02538,5.042585 -14.80851,13.286223 -17.09375,21.3125 -3.12088,10.961271 1.64227,22.47385 11,29.03125 C -545.88502,66.990209 -544,73.746923 -544,84 v 128 c 0,9.0034 -1.33315,15.28533 -3.03125,19.65625 -5.65072,3.22673 -10.00317,8.42571 -11.875,15 -2.28426,8.02283 -0.84324,18.59407 3.28125,27.1875 0.34348,0.74787 1.09572,1.19586 1.90625,1.125 0.81051,-0.0709 1.50653,-0.64106 1.71875,-1.4375 l 6.25,-21.90625 c 0.55861,-1.96203 2.53732,-3.18804 5.3125,-3.71875 2.80142,-0.53573 6.35445,-0.31363 10.09375,0.78125 3.74001,1.09509 6.88143,2.79075 8.96875,4.75 2.07496,1.94766 3.09134,4.09533 2.53125,6.0625 l -6.28125,22 c -0.17335,0.61128 -0.0473,1.2527 0.34375,1.75 0.39109,0.49729 0.99874,0.78534 1.625,0.75 0.33142,-0.0121 0.65424,-0.10634 0.9375,-0.28125 8.02537,-5.04259 14.80851,-13.28622 17.09375,-21.3125 3.13544,-11.01244 -1.71179,-22.58373 -11.15625,-29.125 C -518.29201,228.89503 -520,222.19395 -520,212 V 84 c 0,-9.242822 1.5291,-15.629577 3.40625,-20 5.37661,-3.246685 9.5348,-8.302796 11.34375,-14.65625 2.28425,-8.022828 0.84324,-18.594066 -3.28125,-27.1875 -0.3435,-0.747855 -1.09572,-1.195858 -1.90625,-1.125 -0.81052,0.07086 -1.50653,0.641063 -1.71875,1.4375 l -6.25,21.875 c -0.55862,1.962031 -2.53732,3.219291 -5.3125,3.75 -2.80143,0.53573 -6.35445,0.313626 -10.09375,-0.78125 -3.74002,-1.095088 -6.88143,-2.790748 -8.96875,-4.75 -2.07497,-1.947656 -3.09134,-4.095333 -2.53125,-6.0625 l 6.28125,-22 c 0.17333,-0.611294 0.0473,-1.252704 -0.34375,-1.75 -0.39104,-0.497297 -0.99874,-0.78534 -1.625,-0.75 z"
         id="path3250" />
    </clipPath>
    <linearGradient
       id="linearGradient2620">
      <stop
         style="stop-color:#eeeeec;stop-opacity:1"
         offset="0"
         id="stop2622" />
      <stop
         id="stop2624"
         offset="0.18303643"
         style="stop-color:#babdb6;stop-opacity:1" />
      <stop
         style="stop-color:#ffffff;stop-opacity:1"
         offset="0.31893486"
         id="stop2626" />
      <stop
         id="stop2628"
         offset="0.87643671"
         style="stop-color:#babdb6;stop-opacity:1" />
      <stop
         style="stop-color:#eeeeec;stop-opacity:1"
         offset="1"
         id="stop2630" />
    </linearGradient>
    <linearGradient
       id="linearGradient4434">
      <stop
         id="stop4436"
         offset="0"
         style="stop-color:#d3d7cf;stop-opacity:1;" />
      <stop
         style="stop-color:#babdb6;stop-opacity:1"
         offset="0.18303643"
         id="stop4438" />
      <stop
         id="stop4440"
         offset="0.31893486"
         style="stop-color:#ffffff;stop-opacity:1" />
      <stop
         style="stop-color:#babdb6;stop-opacity:1"
         offset="0.87643671"
         id="stop4442" />
      <stop
         id="stop4444"
         offset="1"
         style="stop-color:#eeeeec;stop-opacity:1" />
    </linearGradient>
    <clipPath
       clipPathUnits="userSpaceOnUse"
       id="clipPath5455">
      <path
         style="display:inline;fill:#000000;fill-opacity:1;fill-rule:evenodd;stroke:none;stroke-width:0.8;stroke-linecap:round;stroke-linejoin:round;stroke-miterlimit:4;stroke-dashoffset:0.3612;stroke-opacity:1;enable-background:new"
         d="m 55.446603,278.1422 c -0.225803,0.24291 -0.387423,0.53781 -0.464039,0.86179 -2.109155,9.24044 -1.07642,19.86597 2.983107,27.15732 5.543994,9.95758 17.052672,14.73015 28.306369,12.75002 4.604283,1.56905 10.714912,5.01386 17.96493,12.26388 l 90.50967,90.50967 c 6.36637,6.36637 9.86568,11.75104 11.75565,16.04249 -1.71402,6.2773 -1.11543,13.03118 2.20971,19.00349 4.05778,7.28822 12.55173,13.74426 21.54466,16.90427 0.7717,0.28595 1.62039,0.0708 2.14342,-0.55242 0.52304,-0.62324 0.61198,-1.51858 0.19887,-2.23181 l -11.07064,-19.90948 c -0.99237,-1.78236 -0.46013,-4.04844 1.12695,-6.38605 1.60209,-2.35973 4.27151,-4.71505 7.68979,-6.58494 3.41893,-1.87024 6.83926,-2.89254 9.70062,-2.9831 2.84442,-0.09 5.08175,0.70993 6.0767,2.49697 l 11.11484,19.99786 c 0.30966,0.55482 0.85233,0.91926 1.4805,0.99437 0.62816,0.0751 1.26154,-0.1509 1.67938,-0.61872 0.22579,-0.2429 0.38742,-0.53781 0.46404,-0.86178 2.10914,-9.24045 1.07642,-19.86598 -2.98311,-27.15732 -5.56988,-10.00407 -17.17953,-14.75869 -28.48314,-12.70583 -4.52335,-1.6797 -10.46946,-5.21035 -17.67767,-12.41856 l -90.50967,-90.50967 c -6.53567,-6.53567 -9.97055,-12.13302 -11.73356,-16.55072 1.50609,-6.09759 0.87116,-12.61309 -2.34229,-18.38478 -4.05779,-7.2882 -12.551729,-13.74425 -21.54466,-16.90427 -0.771704,-0.28592 -1.62039,-0.0708 -2.143417,0.55243 -0.52302,0.62323 -0.611978,1.51857 -0.198874,2.2318 l 11.048544,19.88738 c 0.992361,1.78237 0.482226,4.07054 -1.104855,6.40816 -1.602092,2.35973 -4.271507,4.71504 -7.689786,6.58493 -3.418938,1.87025 -6.839263,2.89255 -9.700622,2.98311 -2.844426,0.09 -5.081745,-0.70993 -6.076699,-2.49697 L 58.606486,278.51785 c -0.309687,-0.55481 -0.852335,-0.91925 -1.480505,-0.99437 -0.62817,-0.0751 -1.261535,0.1509 -1.679378,0.61872 z"
         id="path5457" />
    </clipPath>
    <linearGradient
       id="linearGradient4370">
      <stop
         style="stop-color:#555753;stop-opacity:1"
         offset="0"
         id="stop4372" />
      <stop
         id="stop4378"
         offset="0.22515266"
         style="stop-color:#eeeeec;stop-opacity:1" />
      <stop
         style="stop-color:#babdb6;stop-opacity:1"
         offset="0.4917407"
         id="stop4382" />
      <stop
         style="stop-color:#d3d7cf;stop-opacity:1"
         offset="0.71668518"
         id="stop4380" />
      <stop
         style="stop-color:#2e3436;stop-opacity:1"
         offset="1"
         id="stop4374" />
    </linearGradient>
    <linearGradient
       id="linearGradient4386">
      <stop
         style="stop-color:#d3d7cf;stop-opacity:1"
         offset="0"
         id="stop4388" />
      <stop
         id="stop4394"
         offset="0.30000001"
         style="stop-color:#ffffff;stop-opacity:1" />
      <stop
         style="stop-color:#888a85;stop-opacity:1"
         offset="1"
         id="stop4390" />
    </linearGradient>
    <linearGradient
       id="linearGradient4421">
      <stop
         style="stop-color:#888a85;stop-opacity:1"
         offset="0"
         id="stop4423" />
      <stop
         id="stop4429"
         offset="0.06272686"
         style="stop-color:#bbbcb8;stop-opacity:1;" />
      <stop
         style="stop-color:#eeeeec;stop-opacity:1"
         offset="0.42516851"
         id="stop4431" />
      <stop
         id="stop4433"
         offset="0.92809743"
         style="stop-color:#babdb6;stop-opacity:1" />
      <stop
         style="stop-color:#eeeeec;stop-opacity:1"
         offset="1"
         id="stop4425" />
    </linearGradient>
    <clipPath
       clipPathUnits="userSpaceOnUse"
       id="clipPath4815">
      <path
         style="display:inline;fill:#000000;fill-opacity:1;fill-rule:evenodd;stroke:none;stroke-width:1.5;stroke-linecap:round;stroke-linejoin:round;stroke-miterlimit:4;stroke-dasharray:none;stroke-dashoffset:0.3612;stroke-opacity:1;enable-background:new"
         d="m -236,426 c -8.864,0 -14,1.784 -14,4 0,4 4,16 4,24 0,14.6875 -6,30 -6,40 0,12 4,37.75 4,37.75 0,3.4625 5.352,6.25 12,6.25 6.648,0 12,-2.7875 12,-6.25 0,0 4,-21.75 4,-37.75 0,-12.5 -6,-26.32812 -6,-40 0,-8 4,-20 4,-24 0,-2.216 -5.136,-4 -14,-4 z"
         id="path4817"
         sodipodi:nodetypes="ccsscscsscc" />
    </clipPath>
    <linearGradient
       id="linearGradient5637">
      <stop
         id="stop5639"
         offset="0"
         style="stop-color:#729fcf;stop-opacity:0" />
      <stop
         style="stop-color:#729fcf;stop-opacity:1"
         offset="0.5"
         id="stop5641" />
      <stop
         id="stop5643"
         offset="1"
         style="stop-color:#729fcf;stop-opacity:0;" />
    </linearGradient>
    <linearGradient
       inkscape:collect="always"
       xlink:href="#linearGradient5364"
       id="linearGradient7077"
       gradientUnits="userSpaceOnUse"
       gradientTransform="matrix(1,0,0,0.2203324,0,153.89264)"
       x1="200"
       y1="454.82452"
       x2="200"
       y2="364.83957" />
    <linearGradient
       inkscape:collect="always"
       id="linearGradient5364">
      <stop
         style="stop-color:#000000;stop-opacity:1;"
         offset="0"
         id="stop5366" />
      <stop
         style="stop-color:#000000;stop-opacity:0;"
         offset="1"
         id="stop5368" />
    </linearGradient>
    <filter
       inkscape:collect="always"
       id="filter3558"
       x="-0.040260772"
       width="1.0805215"
       y="-0.17159488"
       height="1.3431898">
      <feGaussianBlur
         inkscape:collect="always"
         stdDeviation="3.3291985"
         id="feGaussianBlur3560" />
    </filter>
    <linearGradient
       inkscape:collect="always"
       xlink:href="#linearGradient4434"
       id="linearGradient7160"
       x1="304.76227"
       y1="64.295265"
       x2="335.30014"
       y2="81.926315"
       gradientUnits="userSpaceOnUse" />
    <linearGradient
       inkscape:collect="always"
       xlink:href="#linearGradient7444"
       id="linearGradient7450"
       x1="324.49731"
       y1="70.282364"
       x2="330.06076"
       y2="99.273735"
       gradientUnits="userSpaceOnUse" />
    <linearGradient
       inkscape:collect="always"
       id="linearGradient7444">
      <stop
         style="stop-color:#888a85;stop-opacity:1;"
         offset="0"
         id="stop7446" />
      <stop
         style="stop-color:#555753;stop-opacity:1"
         offset="1"
         id="stop7448" />
    </linearGradient>
    <linearGradient
       inkscape:collect="always"
       xlink:href="#linearGradient7381"
       id="linearGradient7387"
       x1="302.29202"
       y1="58.442768"
       x2="308.64914"
       y2="60.767513"
       gradientUnits="userSpaceOnUse" />
    <linearGradient
       inkscape:collect="always"
       id="linearGradient7381">
      <stop
         style="stop-color:#babdb6;stop-opacity:1;"
         offset="0"
         id="stop7383" />
      <stop
         style="stop-color:#ffffff;stop-opacity:1"
         offset="1"
         id="stop7385" />
    </linearGradient>
    <linearGradient
       inkscape:collect="always"
       xlink:href="#linearGradient7389"
       id="linearGradient7395"
       x1="342.25937"
       y1="86.516823"
       x2="332.02905"
       y2="86.297417"
       gradientUnits="userSpaceOnUse" />
    <linearGradient
       inkscape:collect="always"
       id="linearGradient7389">
      <stop
         style="stop-color:#babdb6;stop-opacity:1;"
         offset="0"
         id="stop7391" />
      <stop
         style="stop-color:#eeeeec;stop-opacity:1"
         offset="1"
         id="stop7393" />
    </linearGradient>
    <linearGradient
       inkscape:collect="always"
       xlink:href="#linearGradient7421"
       id="linearGradient7427"
       x1="326.60196"
       y1="75.575363"
       x2="317.16116"
       y2="88.006248"
       gradientUnits="userSpaceOnUse" />
    <linearGradient
       inkscape:collect="always"
       id="linearGradient7421">
      <stop
         style="stop-color:#ffffff;stop-opacity:1;"
         offset="0"
         id="stop7423" />
      <stop
         style="stop-color:#ffffff;stop-opacity:0;"
         offset="1"
         id="stop7425" />
    </linearGradient>
    <linearGradient
       inkscape:collect="always"
       xlink:href="#linearGradient5364"
       id="linearGradient3580"
       gradientUnits="userSpaceOnUse"
       gradientTransform="matrix(1,0,0,0.2203324,0,153.89264)"
       x1="200"
       y1="454.82452"
       x2="200"
       y2="242.25258" />
    <filter
       inkscape:collect="always"
       id="filter3576"
       x="-0.086659957"
       width="1.1733199"
       y="-0.36935222"
       height="1.7387044">
      <feGaussianBlur
         inkscape:collect="always"
         stdDeviation="7.1659878"
         id="feGaussianBlur3578" />
    </filter>
    <linearGradient
       inkscape:collect="always"
       xlink:href="#linearGradient7265"
       id="linearGradient7320"
       gradientUnits="userSpaceOnUse"
       x1="357.76776"
       y1="89.5"
       x2="364.11615"
       y2="89.5" />
    <linearGradient
       inkscape:collect="always"
       id="linearGradient7265">
      <stop
         style="stop-color:#204a87;stop-opacity:1;"
         offset="0"
         id="stop7267" />
      <stop
         style="stop-color:#173561;stop-opacity:1"
         offset="1"
         id="stop7269" />
    </linearGradient>
    <linearGradient
       inkscape:collect="always"
       xlink:href="#linearGradient7328"
       id="linearGradient7334"
       x1="360.65695"
       y1="70.583992"
       x2="360.65695"
       y2="40.202564"
       gradientUnits="userSpaceOnUse" />
    <linearGradient
       inkscape:collect="always"
       id="linearGradient7328">
      <stop
         style="stop-color:#eeeeec;stop-opacity:1;"
         offset="0"
         id="stop7330" />
      <stop
         style="stop-color:#888a85;stop-opacity:1"
         offset="1"
         id="stop7332" />
    </linearGradient>
    <linearGradient
       inkscape:collect="always"
       xlink:href="#linearGradient7255"
       id="linearGradient7322"
       gradientUnits="userSpaceOnUse"
       x1="362.6875"
       y1="91.125"
       x2="357.48978"
       y2="90.6875" />
    <linearGradient
       inkscape:collect="always"
       id="linearGradient7255">
      <stop
         style="stop-color:#204a87;stop-opacity:1"
         offset="0"
         id="stop7257" />
      <stop
         style="stop-color:#729fcf;stop-opacity:1"
         offset="1"
         id="stop7259" />
    </linearGradient>
    <linearGradient
       inkscape:collect="always"
       xlink:href="#linearGradient7421"
       id="linearGradient7324"
       gradientUnits="userSpaceOnUse"
       x1="359.68567"
       y1="81.185661"
       x2="369.01855"
       y2="83.71315" />
    <radialGradient
       inkscape:collect="always"
       xlink:href="#linearGradient7293"
       id="radialGradient7326"
       gradientUnits="userSpaceOnUse"
       gradientTransform="matrix(1.8690836,0,0,26.338911,-314.59329,-2270.1352)"
       cx="361.55728"
       cy="89.675224"
       fx="361.55728"
       fy="89.675224"
       r="1.4999996" />
    <linearGradient
       inkscape:collect="always"
       id="linearGradient7293">
      <stop
         style="stop-color:#729fcf;stop-opacity:1;"
         offset="0"
         id="stop7295" />
      <stop
         style="stop-color:#3465a4;stop-opacity:1"
         offset="1"
         id="stop7297" />
    </linearGradient>
    <linearGradient
       inkscape:collect="always"
       xlink:href="#linearGradient7421"
       id="linearGradient7430"
       gradientUnits="userSpaceOnUse"
       x1="361.38559"
       y1="49.926914"
       x2="360.5831"
       y2="41.069016"
       gradientTransform="rotate(45,339.50001,24.801522)" />
  </defs>
  <metadata
     id="metadata4">
    <rdf:RDF>
      <cc:Work
         rdf:about="">
        <dc:format>image/svg+xml</dc:format>
        <dc:type
           rdf:resource="http://purl.org/dc/dcmitype/StillImage" />
        <dc:creator>
          <cc:Agent>
            <dc:title>GNOME Design Team</dc:title>
          </cc:Agent>
        </dc:creator>
        <dc:source />
        <cc:license
           rdf:resource="http://creativecommons.org/licenses/by-sa/4.0/" />
        <dc:title>Adwaita Icon Template</dc:title>
        <dc:subject>
          <rdf:Bag />
        </dc:subject>
        <dc:date />
        <dc:rights>
          <cc:Agent>
            <dc:title />
          </cc:Agent>
        </dc:rights>
        <dc:publisher>
          <cc:Agent>
            <dc:title />
          </cc:Agent>
        </dc:publisher>
        <dc:identifier />
        <dc:relation />
        <dc:language />
        <dc:coverage />
        <dc:description />
        <dc:contributor>
          <cc:Agent>
            <dc:title />
          </cc:Agent>
        </dc:contributor>
      </cc:Work>
      <cc:License
         rdf:about="http://creativecommons.org/licenses/by-sa/4.0/">
        <cc:permits
           rdf:resource="http://creativecommons.org/ns#Reproduction" />
        <cc:permits
           rdf:resource="http://creativecommons.org/ns#Distribution" />
        <cc:requires
           rdf:resource="http://creativecommons.org/ns#Notice" />
        <cc:requires
           rdf:resource="http://creativecommons.org/ns#Attribution" />
        <cc:permits
           rdf:resource="http://creativecommons.org/ns#DerivativeWorks" />
        <cc:requires
           rdf:resource="http://creativecommons.org/ns#ShareAlike" />
      </cc:License>
    </rdf:RDF>
  </metadata>
  <g
     transform="translate(0,-172)"
     style="display:inline"
     id="layer1">
    <g
       style="display:inline"
       id="layer9">
      <g
         transform="rotate(-30,420.69873,288.4192)"
         id="g1710"
         style="display:inline;enable-background:new" />
      <rect
         transform="matrix(0.25,0,0,0.25,0,225)"
         style="display:inline;opacity:1;fill:url(#linearGradient965);fill-opacity:1;stroke:none;stroke-width:1;stroke-linecap:butt;stroke-linejoin:miter;stroke-miterlimit:4;stroke-dasharray:none;stroke-dashoffset:0;stroke-opacity:1;marker:none;marker-start:none;marker-mid:none;marker-end:none;paint-order:normal;enable-background:new"
         id="rect953"
         width="416"
         height="376"
         x="48"
         y="-124"
         rx="32"
         ry="32" />
      <rect
         ry="32"
         rx="32"
         y="-164"
         x="48"
         height="384"
         width="416"
         id="rect950"
         style="display:inline;opacity:1;fill:#deddda;fill-opacity:1;stroke:none;stroke-width:1;stroke-linecap:butt;stroke-linejoin:miter;stroke-miterlimit:4;stroke-dasharray:none;stroke-dashoffset:0;stroke-opacity:1;marker:none;marker-start:none;marker-mid:none;marker-end:none;paint-order:normal;enable-background:new"
         transform="matrix(0.25,0,0,0.25,0,225)" />
      <rect
         transform="scale(1,-1)"
         ry="3.9999695"
         rx="4"
         y="-276"
         x="16"
         height="87.999969"
         width="96"
         id="rect1004"
         style="display:inline;opacity:1;vector-effect:none;fill:#241f31;fill-opacity:1;stroke:none;stroke-width:0.01121096px;stroke-linecap:butt;stroke-linejoin:miter;stroke-miterlimit:4;stroke-dasharray:none;stroke-dashoffset:0;stroke-opacity:1;marker:none;marker-start:none;marker-mid:none;marker-end:none;paint-order:normal;enable-background:new" />
      <rect
         transform="scale(-1)"
         style="display:inline;opacity:0.05;vector-effect:none;fill:url(#radialGradient1030);fill-opacity:1;stroke:none;stroke-width:0.01121096px;stroke-linecap:butt;stroke-linejoin:miter;stroke-miterlimit:4;stroke-dasharray:none;stroke-dashoffset:0;stroke-opacity:1;marker:none;marker-start:none;marker-mid:none;marker-end:none;paint-order:normal;enable-background:new"
         id="rect968"
         width="88"
         height="78"
         x="-108"
         y="-272" />
      <g
         id="g976"
         transform="translate(-2,-2)"
         style="fill:#ffffff">
        <path
           d="M 44.012301,210.88755 30,203.27182 V 208 l 9.710724,4.62951 v 0.1422 L 30,218 v 4.72818 l 14.012301,-8.21451 z"
           style="font-style:normal;font-variant:normal;font-weight:bold;font-stretch:normal;font-size:medium;line-height:1.25;font-family:'Source Code Pro';-inkscape-font-specification:'Source Code Pro, Bold';font-variant-ligatures:normal;font-variant-caps:normal;font-variant-numeric:normal;font-feature-settings:normal;text-align:start;letter-spacing:0px;word-spacing:0px;writing-mode:lr-tb;text-anchor:start;fill:#ffffff;fill-opacity:1;stroke:none;stroke-width:0.24999999"
           id="path972" />
        <path
           d="m 47.999998,226 2e-6,4 h 16.00001 l -2e-6,-4 z"
           style="font-style:normal;font-variant:normal;font-weight:bold;font-stretch:normal;font-size:medium;line-height:1.25;font-family:'Source Code Pro';-inkscape-font-specification:'Source Code Pro, Bold';font-variant-ligatures:normal;font-variant-caps:normal;font-variant-numeric:normal;font-feature-settings:normal;text-align:start;letter-spacing:0px;word-spacing:0px;writing-mode:lr-tb;text-anchor:start;fill:#ffffff;fill-opacity:1;stroke:none;stroke-width:0.24999999"
           id="path974" />
      </g>
      <path
         d="m 100,244 h 4 v 4 h -4 z m -8,0 h 4 v 4 h -4 z m -8,0 h 4 v 4 h -4 z m -8,0 h 4 v 4 h -4 z m -8,0 h 4 v 4 h -4 z m -8,0 h 4 v 4 h -4 z m -8,0 h 4 v 4 h -4 z m -8,0 h 4 v 4 h -4 z m -8,0 h 4 v 4 h -4 z m -8,0 h 4 v 4 h -4 z m -8,0 h 4 v 4 h -4 z m 84,4 h 4 v 4 h -4 z m -8,0 h 4 v 4 h -4 z m -8,0 h 4 v 4 h -4 z m -8,0 h 4 v 4 h -4 z m -8,0 h 4 v 4 h -4 z m -8,0 h 4 v 4 h -4 z m -8,0 h 4 v 4 h -4 z m -8,0 h 4 v 4 h -4 z m -8,0 h 4 v 4 h -4 z m -8,0 h 4 v 4 h -4 z m -8,0 h 4 v 4 h -4 z m 76,4 h 4 v 4 h -4 z m -8,0 h 4 v 4 h -4 z m -8,0 h 4 v 4 h -4 z m -8,0 h 4 v 4 h -4 z m -8,0 h 4 v 4 h -4 z m -8,0 h 4 v 4 h -4 z m -8,0 h 4 v 4 h -4 z m -8,0 h 4 v 4 h -4 z m -8,0 h 4 v 4 h -4 z m -8,0 h 4 v 4 h -4 z m -8,0 h 4 v 4 h -4 z m 84,4 h 4 v 4 h -4 z m -8,0 h 4 v 4 h -4 z m -8,0 h 4 v 4 h -4 z m -8,0 h 4 v 4 h -4 z m -8,0 h 4 v 4 h -4 z m -8,0 h 4 v 4 h -4 z m -8,0 h 4 v 4 h -4 z m -8,0 h 4 v 4 h -4 z m -8,0 h 4 v 4 h -4 z m -8,0 h 4 v 4 h -4 z m -8,0 h 4 v 4 h -4 z m 76,4 h 4 v 4 h -4 z m -8,0 h 4 v 4 h -4 z m -8,0 h 4 v 4 h -4 z m -8,0 h 4 v 4 h -4 z m -8,0 h 4 v 4 h -4 z m -8,0 h 4 v 4 h -4 z m -8,0 h 4 v 4 h -4 z m -8,0 h 4 v 4 h -4 z m -8,0 h 4 v 4 h -4 z m -8,0 h 4 v 4 h -4 z m -8,0 h 4 v 4 h -4 z m 84,4 h 4 v 4 h -4 z m -8,0 h 4 v 4 h -4 z m -8,0 h 4 v 4 h -4 z m -8,0 h 4 v 4 h -4 z m -8,0 h 4 v 4 h -4 z m -8,0 h 4 v 4 h -4 z m -8,0 h 4 v 4 h -4 z m -8,0 h 4 v 4 h -4 z m -8,0 h 4 v 4 h -4 z m -8,0 h 4 v 4 h -4 z m -8,0 h 4 v 4 h -4 z m 76,4 h 4 v 4 h -4 z m -8,0 h 4 v 4 h -4 z m -8,0 h 4 v 4 h -4 z m -8,0 h 4 v 4 h -4 z m -8,0 h 4 v 4 h -4 z m -8,0 h 4 v 4 h -4 z m -8,0 h 4 v 4 h -4 z m -8,0 h 4 v 4 h -4 z m -8,0 h 4 v 4 h -4 z m -8,0 h 4 v 4 h -4 z m -8,0 h 4 v 4 h -4 z"
         style="opacity:1;vector-effect:none;fill:url(#linearGradient1950);fill-opacity:1;stroke:none;stroke-width:8;stroke-linecap:round;stroke-linejoin:round;stroke-miterlimit:4;stroke-dasharray:none;stroke-dashoffset:0;stroke-opacity:1;marker:none;marker-start:none;marker-mid:none;marker-end:none;paint-order:normal"
         id="rect1059" />
    </g>
  </g>
  <g
     id="g698"
     transform="translate(-234.5,3.90625)"
     style="display:inline;enable-background:new">
    <path
       style="display:inline;opacity:0.342466;fill:url(#linearGradient7077);fill-opacity:1;fill-rule:evenodd;stroke:none;stroke-width:0.8;stroke-linecap:round;stroke-linejoin:round;stroke-miterlimit:4;stroke-dashoffset:0.3612;stroke-opacity:1;filter:url(#filter3558);enable-background:new"
       d="m 89.52239,207.26931 c -6.105509,0.97223 10.74462,4.98389 2.763624,7.2021 -8.866586,2.65898 -18.443462,1.54443 -26.682613,-2.62951 -12.560114,-4.40099 -3.190888,9.25488 5.315033,7.06724 11.604966,1.58248 23.475506,-0.1751 34.726866,3.8511 14.01407,3.08875 28.02813,6.17749 42.0422,9.26624 -6.12258,1.06873 -12.16416,3.8422 -18.39652,1.76198 -12.15062,1.7297 -24.01339,6.73659 -36.506157,7.86992 -11.592935,1.94835 -23.028259,5.0283 -34.134124,8.78884 10.230619,6.49361 23.267766,2.04222 34.356196,-0.16799 15.808485,-2.57788 30.331955,-10.27606 46.482785,-11.22368 4.86839,0.14199 9.37146,-2.01602 1.66657,-3.08363 6.16803,-1.15048 12.31988,-3.86929 18.52488,-1.43888 16.51998,3.60356 33.37431,5.88085 49.60326,10.65148 2.73674,7.99334 18.92015,8.32519 28.08905,8.29688 -3.58608,-2.12034 -8.75363,-2.83963 -11.72459,-5.30005 8.61196,-2.72511 11.73277,-4.33863 20.60485,-0.46197 4.55233,4.08219 17.06621,2.4695 7.09891,-3.52 -11.98996,-5.08859 -25.49606,-1.3798 -37.81217,-5.67405 -15.07598,-2.99527 -30.15196,-5.99053 -45.22794,-8.98579 21.22712,-4.49928 42.61802,-8.34501 63.73977,-13.26494 2.15152,-2.74789 13.40055,-3.56334 11.62314,-4.95306 -5.80787,-2.63954 -10.28301,3.89748 -16.31048,3.61668 -21.48853,4.76382 -43.12812,8.85528 -64.67743,13.3485 -17.83414,-4.21359 -35.98247,-7.27083 -53.55812,-12.44217 -2.00614,-6.90976 -13.905663,-7.81949 -21.60699,-8.57524 z"
       id="path6896"
       sodipodi:nodetypes="csccsssccssssccccssscsssssccccsssccsssccssssccccccccccccssc"
       transform="matrix(0.221122,0,0,0.1727654,285.33,51.383347)" />
    <path
       style="display:inline;fill:url(#linearGradient7160);fill-opacity:1;fill-rule:evenodd;stroke:url(#linearGradient7450);stroke-width:1;stroke-linecap:round;stroke-linejoin:round;stroke-miterlimit:4;stroke-dasharray:none;stroke-dashoffset:0.3612;stroke-opacity:1;enable-background:new"
       d="m 299.15196,54.936114 c -1.01104,3.084903 0.23073,7.345243 3.73431,8.150465 2.43588,-0.102865 4.68746,0.758351 6.30074,2.680114 6.39053,6.391241 12.87062,12.696772 19.20374,19.142947 2.49766,1.852346 0.37844,5.251049 2.74356,7.239754 0.79336,0.821533 3.76791,3.381041 4.02614,1.662886 -0.74125,-1.407324 -1.62473,-2.752337 -2.27705,-4.198619 0.24664,-2.002418 3.81401,-4.065933 5.25844,-2.209454 0.76275,1.305314 1.42763,2.681551 2.25007,3.943611 1.5663,-0.725883 0.74564,-3.959816 0.16531,-5.459262 -1.10249,-2.781816 -4.31187,-2.869598 -6.70267,-3.177569 -2.77887,-1.631838 -4.77035,-4.249926 -7.11727,-6.41148 -5.00847,-5.023446 -10.11756,-9.951182 -15.0605,-15.036986 -2.42463,-1.864765 -0.43787,-5.222249 -2.74871,-7.190347 -0.7934,-0.821503 -3.76784,-3.381065 -4.02618,-1.662869 0.74003,1.40606 1.6216,2.750014 2.2733,4.194827 -0.23539,2.006304 -3.81187,4.069575 -5.25464,2.213219 -0.76274,-1.305315 -1.42765,-2.681529 -2.25007,-3.943604 -0.1578,-0.10814 -0.39151,-0.08229 -0.51852,0.06237 z"
       id="path6912" />
    <path
       style="display:inline;fill:url(#linearGradient7387);fill-opacity:1;fill-rule:evenodd;stroke:none;stroke-width:1;stroke-linecap:round;stroke-linejoin:round;stroke-miterlimit:4;stroke-dashoffset:0.3612;stroke-opacity:1;enable-background:new"
       d="m 305.1875,52.0625 c 0.74169,1.512946 1.75173,2.920814 2.38555,4.485033 -0.27014,2.354585 -3.4564,4.084014 -5.57912,3.033473 -0.97724,-1.336833 -1.68643,-3.094573 -2.55638,-4.362256 -0.74879,2.892177 0.30278,6.759145 3.56445,7.501968 3.8812,1.215541 8.3443,-3.117686 6.57692,-6.996435 -0.82628,-1.785305 -2.5905,-2.999201 -4.39142,-3.661783 z"
       id="path7379"
       sodipodi:nodetypes="cccsssccsssscsc" />
    <path
       style="display:inline;fill:url(#linearGradient7395);fill-opacity:1;fill-rule:evenodd;stroke:none;stroke-width:1;stroke-linecap:round;stroke-linejoin:round;stroke-miterlimit:4;stroke-dashoffset:0.3612;stroke-opacity:1;enable-background:new"
       d="m 336.28125,83.34375 c -3.68968,-0.492669 -7.45994,3.505451 -5.80401,7.135733 0.69574,1.703043 3.00294,3.372322 4.32976,3.523591 -0.74973,-1.453837 -1.70095,-2.820161 -2.31747,-4.33185 0.27811,-2.332866 3.47045,-4.063529 5.57908,-3.033461 0.98277,1.369342 1.65561,2.995251 2.55639,4.393487 0.84423,-3.061337 -0.51001,-7.199835 -4.04872,-7.646817 z"
       id="path7376"
       sodipodi:nodetypes="csscssccsssccssc" />
    <path
       sodipodi:type="inkscape:offset"
       inkscape:radius="-0.83321846"
       inkscape:original="M 305.3125 51.71875 C 305.15507 51.661141 304.98208 51.717102 304.875 51.84375 C 304.76792 51.970402 304.75974 52.136809 304.84375 52.28125 L 307.09375 56.3125 C 307.29552 56.673508 307.16892 57.150122 306.84375 57.625 C 306.51549 58.104379 305.98007 58.587847 305.28125 58.96875 C 304.58229 59.349728 303.86551 59.542743 303.28125 59.5625 C 302.70044 59.582153 302.26477 59.424464 302.0625 59.0625 L 299.8125 55 C 299.74953 54.887625 299.62823 54.82742 299.5 54.8125 C 299.37179 54.797574 299.24179 54.842408 299.15625 54.9375 C 299.11003 54.986877 299.07829 55.059263 299.0625 55.125 C 298.62739 57.000147 298.83093 59.148187 299.65625 60.625 C 300.78337 62.641858 303.13883 63.594589 305.4375 63.1875 C 306.37681 63.503494 307.61699 64.189366 309.09375 65.65625 L 327.53125 83.96875 C 328.82803 85.25684 329.52245 86.349295 329.90625 87.21875 C 329.55326 88.492728 329.66773 89.884094 330.34375 91.09375 C 331.16869 92.569949 332.91541 93.863477 334.75 94.5 C 334.90743 94.55761 335.0804 94.501668 335.1875 94.375 C 335.2946 94.248346 335.30275 94.081956 335.21875 93.9375 L 332.96875 89.90625 C 332.76702 89.545227 332.89358 89.06863 333.21875 88.59375 C 333.54702 88.114364 334.08242 87.66216 334.78125 87.28125 C 335.48023 86.900266 336.197 86.676006 336.78125 86.65625 C 337.36206 86.636615 337.79771 86.7943 338 87.15625 L 340.25 91.21875 C 340.31296 91.331114 340.43428 91.39133 340.5625 91.40625 C 340.69071 91.421193 340.82071 91.376335 340.90625 91.28125 C 340.95247 91.231867 340.98421 91.190747 341 91.125 C 341.43511 89.249867 341.23156 87.070584 340.40625 85.59375 C 339.27388 83.567482 336.90265 82.609386 334.59375 83.03125 C 333.67102 82.692782 332.46825 81.989669 331 80.53125 L 312.5625 62.21875 C 311.23124 60.896407 310.54533 59.770117 310.1875 58.875 C 310.49795 57.637566 310.37205 56.294034 309.71875 55.125 C 308.89377 53.648822 307.1471 52.355267 305.3125 51.71875 z "
       style="display:inline;fill:none;fill-opacity:1;fill-rule:evenodd;stroke:url(#linearGradient7427);stroke-width:0.7;stroke-linecap:round;stroke-linejoin:miter;stroke-miterlimit:4;stroke-dasharray:none;stroke-dashoffset:0.3612;stroke-opacity:1;enable-background:new"
       id="path7164"
       d="m 306.30859,53.195312 1.51368,2.710938 h -0.002 c 0.42656,0.763203 0.12599,1.583321 -0.28906,2.189453 -0.41934,0.612393 -1.04963,1.168364 -1.85156,1.605469 -0.80531,0.438942 -1.62665,0.668185 -2.3711,0.693359 -0.74543,0.02522 -1.57211,-0.209015 -1.97265,-0.925781 a 0.83330178,0.83330178 0 0 1 -0.002,-0.002 l -1.5371,-2.777344 c -0.0609,1.307485 0.0799,2.623812 0.58593,3.529297 0.94047,1.682871 2.92754,2.499555 4.91016,2.148438 a 0.83330178,0.83330178 0 0 1 0.41015,0.03125 c 1.07459,0.361502 2.42842,1.126276 3.97852,2.666015 l 18.4375,18.3125 c 1.35838,1.349279 2.11921,2.532615 2.54883,3.505859 a 0.83330178,0.83330178 0 0 1 0.041,0.558594 c -0.29893,1.078869 -0.20149,2.238985 0.36133,3.246094 0.49705,0.889442 1.54004,1.69331 2.6836,2.335938 L 332.24023,90.3125 h 0.002 c -0.42643,-0.763154 -0.126,-1.583301 0.28906,-2.189453 0.42888,-0.626314 1.06644,-1.146274 1.85156,-1.574219 0.78851,-0.429781 1.597,-0.698434 2.3711,-0.724609 0.74542,-0.0252 1.5721,0.209081 1.97265,0.925781 a 0.83330178,0.83330178 0 0 1 0.002,0.002 l 1.53906,2.777344 c 0.0562,-1.309654 -0.0867,-2.632373 -0.58789,-3.529297 -0.94529,-1.691501 -2.94529,-2.512081 -4.93555,-2.148438 a 0.83330178,0.83330178 0 0 1 -0.4375,-0.03711 c -1.05321,-0.386328 -2.35986,-1.167012 -3.89453,-2.691406 l -18.4375,-18.3125 c -1.39757,-1.388206 -2.15591,-2.614749 -2.56055,-3.626953 a 0.83330178,0.83330178 0 0 1 -0.0351,-0.511719 c 0.26287,-1.047793 0.1562,-2.169112 -0.38672,-3.140625 -0.49708,-0.889453 -1.54005,-1.693309 -2.6836,-2.335938 z" />
    <rect
       style="display:inline;opacity:0.08;fill:#000000;fill-opacity:1;fill-rule:evenodd;stroke:none;stroke-width:0.7;stroke-linecap:round;stroke-linejoin:miter;stroke-miterlimit:4;stroke-dasharray:none;stroke-dashoffset:0.3612;stroke-opacity:1;enable-background:new"
       id="rect7166"
       width="1.9558058"
       height="30.75498"
       x="173.5925"
       y="262.53754"
       rx="0.88951457"
       ry="1.7769208"
       transform="rotate(-45)" />
    <path
       style="display:inline;opacity:0.242009;fill:#000000;fill-opacity:1;fill-rule:evenodd;stroke:#000000;stroke-width:1;stroke-linecap:round;stroke-linejoin:round;stroke-miterlimit:4;stroke-dasharray:none;stroke-dashoffset:0.3612;stroke-opacity:1;enable-background:new"
       d="m 322.5,72.09375 c -1.15625,1.145833 -2.3125,2.291667 -3.46875,3.4375 0.61081,0.31523 1.22162,1.946058 1.83244,1.042563 1.0246,-1.024604 2.04921,-2.049209 3.07381,-3.073813 -0.47917,-0.46875 -0.95833,-0.9375 -1.4375,-1.40625 z"
       id="path7356" />
    <path
       style="display:inline;opacity:0.205479;fill:url(#linearGradient3580);fill-opacity:1;fill-rule:evenodd;stroke:none;stroke-width:0.8;stroke-linecap:round;stroke-linejoin:round;stroke-miterlimit:4;stroke-dashoffset:0.3612;stroke-opacity:1;filter:url(#filter3576);enable-background:new"
       d="m 89.52239,207.26931 c -6.105509,0.97223 10.74462,4.98389 2.763624,7.2021 -8.866586,2.65898 -18.443462,1.54443 -26.682613,-2.62951 -12.560114,-4.40099 -3.190888,9.25488 5.315033,7.06724 11.604966,1.58248 23.475506,-0.1751 34.726866,3.8511 14.01407,3.08875 28.02813,6.17749 42.0422,9.26624 -6.12258,1.06873 -12.16416,3.8422 -18.39652,1.76198 -12.15062,1.7297 -24.01339,6.73659 -36.506157,7.86992 -11.592935,1.94835 -23.028259,5.0283 -34.134124,8.78884 10.230619,6.49361 23.267766,2.04222 34.356196,-0.16799 15.808485,-2.57788 30.331955,-10.27606 46.482785,-11.22368 4.86839,0.14199 9.37146,-2.01602 1.66657,-3.08363 6.16803,-1.15048 12.31988,-3.86929 18.52488,-1.43888 16.51998,3.60356 33.37431,5.88085 49.60326,10.65148 2.73674,7.99334 18.92015,8.32519 28.08905,8.29688 -3.58608,-2.12034 -8.75363,-2.83963 -11.72459,-5.30005 8.61196,-2.72511 11.73277,-4.33863 20.60485,-0.46197 4.55233,4.08219 17.06621,2.4695 7.09891,-3.52 -11.98996,-5.08859 -25.49606,-1.3798 -37.81217,-5.67405 -15.07598,-2.99527 -30.15196,-5.99053 -45.22794,-8.98579 21.22712,-4.49928 42.61802,-8.34501 63.73977,-13.26494 2.15152,-2.74789 13.40055,-3.56334 11.62314,-4.95306 -5.80787,-2.63954 -10.28301,3.89748 -16.31048,3.61668 -21.48853,4.76382 -43.12812,8.85528 -64.67743,13.3485 -17.83414,-4.21359 -35.98247,-7.27083 -53.55812,-12.44217 -2.00614,-6.90976 -13.905663,-7.81949 -21.60699,-8.57524 z"
       id="path3562"
       sodipodi:nodetypes="csccsssccssssccccssscsssssccccsssccsssccssssccccccccccccssc"
       transform="matrix(0.221122,0,0,0.1727654,285.33,51.383347)" />
    <g
       style="display:inline;enable-background:new"
       id="g7308"
       transform="rotate(45,339.50001,24.801522)">
      <path
         style="display:inline;fill:#729fcf;fill-opacity:1;fill-rule:evenodd;stroke:url(#linearGradient7320);stroke-width:2;stroke-linecap:round;stroke-linejoin:round;stroke-miterlimit:4;stroke-dasharray:none;stroke-dashoffset:0.3612;stroke-opacity:1;enable-background:new"
         d="m 360.54964,79.000066 c -2.58237,-0.536268 -3.76113,1.150823 -2.47743,3.371778 1.12333,3.969383 -1.83529,7.741865 -0.91266,11.73315 0.57534,1.851829 -0.279,4.850778 1.8394,5.699574 2.53105,0.988602 4.92081,-0.666308 4.54538,-3.399273 0.52666,-2.920615 0.70837,-5.958814 -0.30692,-8.804969 -0.80469,-2.317222 -0.53664,-4.771545 0.23192,-7.050039 0.82281,-1.796515 -1.96494,-1.427054 -2.91969,-1.550221 z"
         id="path7310"
         sodipodi:nodetypes="ccsscscsscc" />
      <path
         sodipodi:nodetypes="ccccccccc"
         id="path7312"
         d="m 359.20711,44.136038 c -0.2357,1.707107 -0.47141,3.414214 -0.70711,5.121321 0.68907,0.558333 1.24939,1.169995 1,2.11705 0,10.500197 0,21.000394 0,31.500591 0.64215,-0.210687 2.22135,0.515669 2,-0.558525 0,-10.686372 0,-21.372744 0,-32.059116 0.70695,-0.559562 1.26025,-1.170741 0.84722,-2.106552 -0.18478,-1.338256 -0.36955,-2.676513 -0.55433,-4.014769 -0.86193,0 -1.72385,0 -2.58578,0 z"
         style="fill:url(#linearGradient7334);fill-opacity:1;fill-rule:evenodd;stroke:#555753;stroke-width:1;stroke-linecap:round;stroke-linejoin:miter;stroke-miterlimit:4;stroke-dashoffset:0.3612;stroke-opacity:1" />
      <path
         style="display:inline;fill:url(#linearGradient7322);fill-opacity:1;fill-rule:evenodd;stroke:none;stroke-width:2;stroke-linecap:round;stroke-linejoin:round;stroke-miterlimit:4;stroke-dasharray:none;stroke-dashoffset:0.3612;stroke-opacity:1;enable-background:new"
         d="m 360.54962,79.000066 c -2.58237,-0.53627 -3.76111,1.150827 -2.47743,3.371778 1.12334,3.969383 -1.83528,7.741864 -0.91265,11.73315 0.57534,1.85183 -0.27901,4.850786 1.8394,5.699574 2.53105,0.988602 4.9208,-0.666312 4.54537,-3.399273 0.52667,-2.920615 0.70836,-5.958814 -0.30692,-8.804969 -0.80469,-2.317223 -0.53664,-4.771547 0.23193,-7.050039 0.82281,-1.796517 -1.96495,-1.427053 -2.9197,-1.550221 z"
         id="path7314"
         sodipodi:nodetypes="ccsscscsscc" />
      <path
         id="path7316"
         style="display:inline;opacity:0.333333;fill:none;fill-opacity:1;fill-rule:evenodd;stroke:url(#linearGradient7324);stroke-width:1;stroke-linecap:round;stroke-linejoin:round;stroke-miterlimit:4;stroke-dasharray:none;stroke-dashoffset:0.3612;stroke-opacity:1;enable-background:new"
         inkscape:original="M 360.5625 79 C 358.62354 79.005541 357.47037 79.334502 357.46875 79.75 C 357.46584 80.499996 358.34958 82.750007 358.34375 84.25 C 358.33302 87.003898 357.00729 89.875008 357 91.75 C 356.99125 93.999991 357.84375 98.84375 357.84375 98.84375 C 357.84123 99.492966 359.01453 100.00416 360.46875 100 C 361.92297 99.995846 363.09122 99.461716 363.09375 98.8125 C 363.09376 98.812503 363.98833 94.749987 364 91.75 C 364.00913 89.406258 362.70877 86.813466 362.71875 84.25 C 362.72458 82.750005 363.59083 80.499997 363.59375 79.75 C 363.59536 79.334506 362.50148 78.994456 360.5625 79 z "
         inkscape:radius="-0.51103479"
         sodipodi:type="inkscape:offset"
         d="m 360.56445,79.511719 c -0.94087,0.0027 -1.68541,0.08695 -2.15039,0.205078 -0.20658,0.05248 -0.33089,0.110597 -0.40625,0.152344 0.0227,0.235543 0.18651,0.922303 0.39453,1.720703 0.22221,0.852822 0.45644,1.810761 0.45313,2.662109 -0.006,1.45826 -0.35406,2.902042 -0.68945,4.205078 -0.3354,1.303036 -0.65112,2.476853 -0.6543,3.294922 -0.008,2.118058 0.83594,7.003906 0.83594,7.003906 a 0.51108589,0.51108589 0 0 1 0.008,0.08984 c -3e-5,0.0081 -0.005,0.03069 0.0625,0.101563 0.0674,0.07087 0.2036,0.167279 0.39648,0.251953 0.38576,0.169348 0.98551,0.29097 1.65235,0.289062 0.66493,-0.0019 1.26271,-0.129618 1.64843,-0.304687 0.19287,-0.08754 0.32891,-0.187557 0.39844,-0.261719 0.0695,-0.07416 0.0683,-0.102014 0.0684,-0.111328 a 0.51108589,0.51108589 0 0 1 0.0117,-0.107422 c 0,0 0.88325,-4.054885 0.89453,-6.955078 0.008,-2.153256 -1.29191,-4.762376 -1.28125,-7.5 0.003,-0.847377 0.23517,-1.803767 0.45508,-2.65625 0.20663,-0.801006 0.37191,-1.493572 0.39453,-1.732422 -0.0686,-0.03985 -0.1833,-0.09623 -0.38086,-0.148437 -0.44594,-0.117839 -1.17199,-0.201905 -2.11133,-0.199219 z" />
      <path
         style="display:inline;fill:url(#radialGradient7326);fill-opacity:1;fill-rule:evenodd;stroke:none;stroke-width:2;stroke-linecap:round;stroke-linejoin:round;stroke-miterlimit:4;stroke-dasharray:none;stroke-dashoffset:0.3612;stroke-opacity:1;enable-background:new"
         d="m 360.52127,79.000066 c -2.6626,0.388281 -0.3948,3.947187 -0.95349,5.773731 -0.21096,3.598912 -0.84084,7.185739 -0.42169,10.798518 -0.0852,1.49179 0.0852,6.005245 2.37819,3.705858 0.55474,-4.347194 0.64085,-8.764178 0.0104,-13.111228 -0.55643,-2.283429 0.72422,-4.881937 -0.0459,-6.95415 l -0.41194,-0.157679 z"
         id="path7318"
         sodipodi:nodetypes="ccsscscsscc" />
    </g>
    <path
       style="display:inline;fill:url(#linearGradient7430);fill-opacity:1;fill-rule:evenodd;stroke:none;stroke-width:1;stroke-linecap:round;stroke-linejoin:miter;stroke-miterlimit:4;stroke-dashoffset:0.3612;stroke-opacity:1;enable-background:new"
       d="m 339.71884,53.087917 c -1.25404,0.856298 -2.50809,1.712596 -3.76213,2.568894 -0.23937,0.947601 0.2807,1.58064 0.98734,2.136389 0.61347,0.565049 1.7124,0.310136 1.95133,-0.556398 0.6796,-0.99258 1.3592,-1.985159 2.0388,-2.977739 -0.40511,-0.390382 -0.81022,-0.780764 -1.21534,-1.171146 z"
       id="path7338"
       sodipodi:nodetypes="ccccccc" />
    <path
       style="display:inline;fill:none;fill-rule:evenodd;stroke:#ffffff;stroke-width:1px;stroke-linecap:butt;stroke-linejoin:miter;stroke-opacity:1;enable-background:new"
       d="m 340.64871,54.700238 c -0.42721,-0.42721 -0.85442,-0.854421 -1.28163,-1.281631"
       id="path7434"
       sodipodi:nodetypes="cc" />
    <g
       id="g7440"
       style="opacity:0.488584">
      <rect
         y="52"
         x="305"
         height="1"
         width="1"
         id="rect7436"
         style="opacity:1;fill:#ffffff;fill-opacity:1;fill-rule:evenodd;stroke:none;stroke-width:1;stroke-linecap:round;stroke-linejoin:miter;stroke-miterlimit:4;stroke-dasharray:none;stroke-dashoffset:0.3612;stroke-opacity:1" />
      <rect
         y="55"
         x="299"
         height="1"
         width="1"
         id="rect7438"
         style="display:inline;opacity:1;fill:#ffffff;fill-opacity:1;fill-rule:evenodd;stroke:none;stroke-width:1;stroke-linecap:round;stroke-linejoin:miter;stroke-miterlimit:4;stroke-dasharray:none;stroke-dashoffset:0.3612;stroke-opacity:1;enable-background:new" />
    </g>
  </g>
</svg>
